{"title":"Chocolat 2000 720p Esub BluRay Dual Audio English Hindi 5.1 GOPI","magnet":"magnet:?xt=urn:btih:15364193a575a9f2541bcd090a8cf92994247bde&dn=Chocolat+2000+720p+Esub+BluRay+Dual+Audio+English+Hindi+5.1+GOPI&tr=udp%3A%2F%2Ftracker.leechers-paradise.org%3A6969&tr=udp%3A%2F%2Fzer0day.ch%3A1337&tr=udp%3A%2F%2Fopen.demonii.com%3A1337&tr=udp%3A%2F%2Ftracker.coppersurfer.tk%3A6969&tr=udp%3A%2F%2Fexodus.desync.com%3A6969","uploader":"jatt13","categoryP":"video","categoryS":"hd___movies","size":"926386138","seeders":"18","leechers":"25","description":"[center]Video\r\nID                             : 1\r\nFormat                         : AVC\r\nCodec ID                       : V_MPEG4/ISO/AVC\r\nDuration                       : 2 h 1 min\r\nBit rate                       : 827 kb/s\r\nWidth                          : 1 280 pixels\r\nHeight                         : 720 pixels\r\nDisplay aspect ratio           : 16:9\r\nFrame rate mode                : Constant\r\nFrame rate                     : 23.976 (24000/1001) FPS\r\nStream size                    : 719 MiB (81%)\r\nWriting library                : x264 core 129 r2245 bc13772\r\n\r\nAudio #1\r\nFormat                         : AC-3\r\nDuration                       : 1 h 56 min\r\nBit rate mode                  : Constant\r\nBit rate                       : 96.0 kb/s\r\nChannel(s)                     : 6 channels\r\nChannel positions              : Front: L C R, Side: L R, LFE\r\nSampling rate                  : 44.1 kHz\r\nStream size                    : 80.1 MiB (9%)\r\nLanguage                       : Hindi\r\n\r\nAudio #2\r\nFormat                         : AC-3\r\nDuration                       : 1 h 59 min\r\nBit rate mode                  : Constant\r\nBit rate                       : 96.0 kb/s\r\nChannel(s)                     : 6 channels\r\nChannel positions              : Front: L C R, Side: L R, LFE\r\nSampling rate                  : 44.1 kHz\r\nStream size                    : 82.1 MiB (9%)\r\nLanguage                       : English\r\nService kind                   : Complete Main\r\n\r\nText\r\nDuration                       : 1 h 56 min\r\nStream size                    : 37.0 KiB (0%)\r\nLanguage                       : English\r\n[img]https://lookimg.com/images/2017/06/28/Chocolat2000720pEsubBluRayDualAudioEnglishHindi5.1GOPISAHI.mkv_snapshot_00.17.52_2017.06.28_09.38.12.jpg[/img]\r\n[img]https://lookimg.com/images/2017/06/28/Chocolat2000720pEsubBluRayDualAudioEnglishHindi5.1GOPISAHI.mkv_snapshot_00.39.48_2017.06.28_09.38.19.jpg[/img]\r\n[img]https://lookimg.com/images/2017/06/28/Chocolat2000720pEsubBluRayDualAudioEnglishHindi5.1GOPISAHI.mkv_thumbs_2017.06.28_09.35.39.jpg[/img]\r\n[/center]","last_updated":"2017-06-29T12:01:06.782Z","parsed":{"xt":"urn:btih:15364193a575a9f2541bcd090a8cf92994247bde","dn":"Chocolat 2000 720p Esub BluRay Dual Audio English Hindi 5.1 GOPI","tr":["udp://exodus.desync.com:6969","udp://open.demonii.com:1337","udp://tracker.coppersurfer.tk:6969","udp://tracker.leechers-paradise.org:6969","udp://zer0day.ch:1337"],"infoHash":"15364193a575a9f2541bcd090a8cf92994247bde","infoHashBuffer":{"type":"Buffer","data":[21,54,65,147,165,117,169,242,84,27,205,9,10,140,249,41,148,36,123,222]},"name":"Chocolat 2000 720p Esub BluRay Dual Audio English Hindi 5.1 GOPI","announce":["udp://exodus.desync.com:6969","udp://open.demonii.com:1337","udp://tracker.coppersurfer.tk:6969","udp://tracker.leechers-paradise.org:6969","udp://zer0day.ch:1337"],"urlList":[]}}